<svg width="1200" height="100" xmlns="http://www.w3.org/2000/svg">

 <g>
  <title>Layer 1</title>
  <g stroke="null">
   <path stroke="null" d="m0.00002,357l39.94445,-16.96563c39.94445,-16.71146 119.83334,-51.02396 199.72223,-74.53438c79.88889,-23.51042 159.77778,-37.48958 239.66667,-27.13229c79.88889,9.97604 159.77778,44.28854 239.66667,67.79896c79.88889,23.51042 159.77778,37.48958 239.66667,33.86771c79.88889,-3.36771 159.77778,-23.70104 199.72223,-33.86771l39.94445,-10.16667l0,-81.33334l-39.94445,0c-39.94445,0 -119.83334,0 -199.72223,0c-79.88889,0 -159.77778,0 -239.66667,0c-79.88889,0 -159.77778,0 -239.66667,0c-79.88889,0 -159.77778,0 -239.66667,0c-79.88889,0 -159.77778,0 -199.72223,0l-39.94445,0l0,142.33334z" fill="#e4e4e4"/>
  </g>
  <g stroke="null">
   <path stroke="null" d="m-108.33336,100.33331l43.61111,-12.39643c43.61111,-12.21071 130.83333,-37.28213 218.05556,-54.4607c87.22222,-17.17857 174.44445,-27.39285 261.66667,-19.82499c87.22222,7.28928 174.44445,32.36071 261.66667,49.53927c87.22222,17.17857 174.44445,27.39285 261.66667,24.74642c87.22222,-2.46071 174.44445,-17.31785 218.05556,-24.74642l43.61111,-7.42857l0,-59.42856l-43.61111,0c-43.61111,0 -130.83333,0 -218.05556,0c-87.22222,0 -174.44445,0 -261.66667,0c-87.22222,0 -174.44445,0 -261.66667,0c-87.22222,0 -174.44445,0 -261.66667,0c-87.22222,0 -174.44445,0 -218.05556,0l-43.61111,0l0,103.99997z" fill="#e4e4e4"/>
  </g>
 </g>
</svg>